<?xml version="1.0" encoding="UTF-8"?>
<svg id="Layer_1" data-name="Layer 1" xmlns="http://www.w3.org/2000/svg" viewBox="0 0 600 600">
  <defs>
    <style>
      .cls-1 {
        fill: #fff;
      }

      .cls-2 {
        fill: #21c16c;
      }
    </style>
  </defs>
  <path class="cls-2" d="m300,0h0c165.69,0,300,134.31,300,300h0c0,165.69-134.31,300-300,300h0C134.31,600,0,465.69,0,300h0C0,134.31,134.31,0,300,0Z"/>
  <g>
    <path class="cls-1" d="m440.49,175.65H159.25c-21.94,0-39.65,17.71-39.65,39.65v251.9l54.71-54.19h266.44c21.94,0,39.65-17.71,39.65-39.65v-158.06c-.26-21.94-17.97-39.65-39.91-39.65Zm-236.57,177.62c0,5.82-4.76,10.57-10.57,10.57s-10.57-4.76-10.57-10.57v-112.34c0-5.82,4.76-10.57,10.57-10.57s10.57,4.76,10.57,10.57v112.34Zm49.16,0c0,5.82-4.76,10.57-10.57,10.57s-10.57-4.76-10.57-10.57v-74.27c0-5.82,4.76-10.57,10.57-10.57s10.57,4.76,10.57,10.57v74.27Zm1.32-108.11c0,6.34-5.02,11.37-11.37,11.37h-1.06c-6.34,0-11.37-5.02-11.37-11.37v-.79c0-6.34,5.02-11.37,11.37-11.37h1.06c6.34,0,11.37,5.02,11.37,11.37v.79Zm74.54,116.04c-4.76,2.38-10.04,3.44-15.6,3.44-18.24,0-28.02-8.72-28.02-25.37v-51.01h-9.52c-3.17,0-5.82-2.38-5.82-5.55v-.26c0-1.85,1.06-3.7,2.64-5.02l23.52-23c1.32-1.32,2.91-2.11,4.76-2.38,3.17,0,6.08,2.64,6.08,5.82v11.37h16.92c5.29,0,9.52,4.23,9.52,9.52s-4.23,9.52-9.52,9.52h-16.92v49.69c0,7.14,3.7,7.67,8.72,7.67,2.11,0,4.23-.26,6.08-.79,1.32-.53,2.91-.53,4.23-.79,4.76,0,8.72,3.96,8.99,8.99-.53,3.44-2.91,6.87-6.08,8.19h0Zm64.76-16.39c7.67.26,15.33-1.59,22.2-5.02,1.32-.79,2.91-1.06,4.23-1.06,5.29,0,9.52,3.96,9.52,9.25v.26c-.26,3.7-2.38,7.14-5.82,8.72-7.4,4.23-15.33,7.93-31.72,7.93-29.6,0-47.58-18.24-47.58-48.64,0-35.68,23.79-48.64,43.88-48.64,30.13,0,43.88,24.05,43.88,46.26.26,5.55-4.23,10.31-9.78,10.57h-56.3c2.91,13.22,12.42,20.35,27.49,20.35Z"/>
    <path class="cls-1" d="m388.94,286.4c-11.63-.26-21.41,8.46-22.47,20.09h45.2c-1.32-11.63-11.1-20.35-22.73-20.09Z"/>
  </g>
</svg>